<svg width="122" height="50" viewBox="0 0 122 50" fill="none" xmlns="http://www.w3.org/2000/svg">
<path fill-rule="evenodd" clip-rule="evenodd" d="M60.5988 25.0113C60.5988 29.6208 61.8008 31.9256 64.2047 31.9256C65.4972 31.9256 66.4291 31.3674 67.0005 30.2509C67.5719 29.1345 67.8498 27.081 67.8342 24.0904C67.8342 19.7839 66.6725 17.6307 64.3492 17.6307C61.8502 17.6345 60.6001 20.0947 60.5988 25.0113ZM55.5441 15.6354C57.6436 13.2173 60.5682 12.0083 64.318 12.0083C67.784 12.0083 70.6123 13.1428 72.8029 15.412C73.4305 16.067 73.9718 16.7988 74.4136 17.5899V12.391H91.9846V15.787C92.3732 15.251 92.8226 14.7614 93.324 14.3279C95.0967 12.7815 97.6582 12.0083 101.008 12.0083C106.077 12.0083 109.428 14.0359 111.063 18.0911L104.726 19.997C104.075 18.3339 102.745 17.5018 100.735 17.5005C99.0677 17.5005 98.2341 18.014 98.2341 19.0411C98.2254 19.2537 98.2727 19.4649 98.3713 19.6537C98.4699 19.8425 98.6165 20.0024 98.7964 20.1174C99.1751 20.3764 99.904 20.6206 100.983 20.8498C103.965 21.478 106.081 22.0336 107.33 22.5167C108.606 23.0016 109.703 23.8641 110.471 24.9879C111.326 26.2032 111.769 27.6585 111.735 29.1416C111.735 31.64 110.714 33.6631 108.673 35.2108C106.627 36.7793 103.946 37.5629 100.63 37.5616C94.5552 37.5616 90.8074 35.0424 89.3861 30.0042L96.4868 28.7278C97.0842 30.7262 98.6168 31.7255 101.085 31.7255C103.007 31.7255 103.969 31.2178 103.97 30.2023C103.978 29.9564 103.92 29.7127 103.803 29.4958C103.687 29.279 103.514 29.0965 103.304 28.9667C102.862 28.6637 102.066 28.4007 100.917 28.178C96.5473 27.3361 93.7431 26.2462 92.504 24.9083C91.2895 23.6206 90.6246 21.9142 90.6492 20.1485C90.6463 19.5338 90.7157 18.9209 90.8562 18.3223H86.8168V37.1672H79.5736V18.3223H74.7982C75.6416 20.098 76.0633 22.1657 76.0633 24.5256C76.0633 28.4655 74.9654 31.6206 72.7697 33.9908C70.5739 36.3609 67.7294 37.5486 64.236 37.5538C60.7335 37.5538 57.8837 36.3978 55.6867 34.0859C53.4896 31.774 52.3833 28.6805 52.3677 24.8053C52.3638 21.1011 53.4226 18.0445 55.5441 15.6354ZM111.93 18.0192H119.583V37.1711H111.93V18.0192Z" fill="#07456B"/>
<path fill-rule="evenodd" clip-rule="evenodd" d="M119.573 15.7306H111.92L114.341 12.391H122L119.573 15.7306Z" fill="#009FDB"/>
<path fill-rule="evenodd" clip-rule="evenodd" d="M21.5676 36.5611L11.2846 30.6881L21.5656 24.7801L21.5676 36.5611Z" fill="#07456B"/>
<path fill-rule="evenodd" clip-rule="evenodd" d="M21.5676 36.5611L31.8486 30.6881L21.5676 24.7801V36.5611Z" fill="#1E689F"/>
<path fill-rule="evenodd" clip-rule="evenodd" d="M21.5676 13.001L11.2846 18.874L21.5656 24.7801L21.5676 13.001Z" fill="#8DD7F7"/>
<path fill-rule="evenodd" clip-rule="evenodd" d="M21.5676 13.001L31.8486 18.874L21.5676 24.7801V13.001Z" fill="#66B9E7"/>
<path fill-rule="evenodd" clip-rule="evenodd" d="M21.5656 24.782L31.8486 30.688V18.874L21.5656 24.782Z" fill="#009FDB"/>
<path fill-rule="evenodd" clip-rule="evenodd" d="M43.1332 12.391L21.5676 0V10.6114L33.8966 17.6967L43.1332 12.391Z" fill="#66B9E7"/>
<path fill-rule="evenodd" clip-rule="evenodd" d="M43.1332 37.1711L21.5676 49.5621V38.9507L33.8986 31.8654L43.1332 37.1711Z" fill="#1E689F"/>
<path fill-rule="evenodd" clip-rule="evenodd" d="M0 12.391L21.5675 0V10.6114L9.23654 17.6967L0 12.391Z" fill="#8DD7F7"/>
<path fill-rule="evenodd" clip-rule="evenodd" d="M0.00196266 37.1711L21.5676 49.5621V38.9507L9.23655 31.8654L0.00196266 37.1711Z" fill="#07456B"/>
<path fill-rule="evenodd" clip-rule="evenodd" d="M43.1331 12.391V37.1711L33.8985 31.8654L33.8966 17.6967L43.1331 12.391Z" fill="#009FDB"/>
<path fill-rule="evenodd" clip-rule="evenodd" d="M0 14.6504L17.6394 24.7781L17.6297 24.782L17.6394 24.7839L0 34.9116L0.00390478 24.782L0 14.6504Z" fill="#7DC142"/>
</svg>
